<?xml version="1.0" encoding="utf-8"?>
<!-- Generator: Adobe Illustrator 16.0.0, SVG Export Plug-In . SVG Version: 6.00 Build 0)  -->
<!DOCTYPE svg PUBLIC "-//W3C//DTD SVG 1.1//EN" "http://www.w3.org/Graphics/SVG/1.1/DTD/svg11.dtd">
<svg version="1.1" id="Layer_1" xmlns="http://www.w3.org/2000/svg" xmlns:xlink="http://www.w3.org/1999/xlink" x="0px" y="0px"
	 width="54.739px" height="54.74px" viewBox="0 0 54.739 54.74" enable-background="new 0 0 54.739 54.74" xml:space="preserve">
<path fill="#FFFFFF" d="M25.522,41.055h4.105V24.633h-4.105V41.055z M27.37,19.568c0.639,0,1.175-0.205,1.607-0.615
	c0.435-0.41,0.65-0.936,0.65-1.574s-0.216-1.186-0.65-1.641c-0.433-0.457-0.969-0.684-1.607-0.684s-1.175,0.227-1.607,0.684
	c-0.435,0.455-0.651,1.002-0.651,1.641s0.217,1.164,0.651,1.574C26.195,19.363,26.731,19.568,27.37,19.568z M27.37,54.74
	c-3.741,0-7.275-0.719-10.605-2.156c-3.331-1.436-6.239-3.398-8.725-5.883c-2.486-2.486-4.447-5.395-5.885-8.725
	C0.719,34.646,0,31.088,0,27.301c0-3.738,0.719-7.275,2.155-10.605c1.438-3.33,3.398-6.227,5.885-8.689
	c2.485-2.465,5.394-4.412,8.725-5.852C20.095,0.719,23.652,0,27.438,0c3.74,0,7.276,0.719,10.605,2.154
	c3.33,1.439,6.227,3.387,8.69,5.852c2.463,2.463,4.413,5.359,5.85,8.689s2.155,6.889,2.155,10.676c0,3.738-0.719,7.275-2.155,10.605
	s-3.387,6.238-5.85,8.725c-2.464,2.484-5.36,4.447-8.69,5.883C34.715,54.021,31.156,54.74,27.37,54.74z M27.438,50.635
	c6.432,0,11.906-2.27,16.422-6.807c4.516-4.539,6.773-10.049,6.773-16.527c0-6.43-2.258-11.904-6.773-16.422
	c-4.516-4.516-10.013-6.773-16.49-6.773c-6.433,0-11.918,2.258-16.457,6.773c-4.538,4.518-6.808,10.012-6.808,16.492
	c0,6.43,2.27,11.918,6.808,16.457C15.452,48.365,20.96,50.635,27.438,50.635z"/>
<g>
</g>
<g>
</g>
<g>
</g>
<g>
</g>
<g>
</g>
<g>
</g>
</svg>
