<?xml version="1.0" encoding="utf-8"?>
<!-- Generator: Adobe Illustrator 16.0.0, SVG Export Plug-In . SVG Version: 6.00 Build 0)  -->
<!DOCTYPE svg PUBLIC "-//W3C//DTD SVG 1.1//EN" "http://www.w3.org/Graphics/SVG/1.1/DTD/svg11.dtd">
<svg version="1.1" id="Layer_1" xmlns="http://www.w3.org/2000/svg" xmlns:xlink="http://www.w3.org/1999/xlink" x="0px" y="0px"
	 width="61.905px" height="41.917px" viewBox="0 0 61.905 41.917" enable-background="new 0 0 61.905 41.917" xml:space="preserve">
<path fill="#FFFFFF" d="M30.953,41.917c-6.833,0-13.097-1.969-18.617-5.852C6.873,32.223,2.724,27.141,0,20.958
	C2.724,14.775,6.873,9.694,12.336,5.852C17.856,1.969,24.12,0,30.953,0S44.05,1.969,49.569,5.852
	c5.465,3.844,9.613,8.925,12.336,15.106c-2.723,6.183-6.871,11.263-12.336,15.107C44.05,39.948,37.786,41.917,30.953,41.917z
	 M30.953,3.171c-5.872,0-11.347,1.611-16.272,4.789c-4.919,3.176-8.741,7.464-11.358,12.746l-0.125,0.252l0.125,0.252
	c2.617,5.281,6.438,9.57,11.358,12.746c4.925,3.178,10.399,4.791,16.272,4.791s11.348-1.613,16.271-4.791
	c4.923-3.178,8.721-7.467,11.288-12.75l0.12-0.248l-0.12-0.248c-2.567-5.283-6.365-9.572-11.288-12.75
	C42.3,4.782,36.825,3.171,30.953,3.171z M30.953,32.588c-3.223,0-5.997-1.139-8.247-3.385c-2.245-2.248-3.384-5.021-3.384-8.246
	c0-3.224,1.139-5.998,3.385-8.246c2.246-2.245,5.021-3.384,8.246-3.384s6,1.139,8.245,3.385c2.246,2.247,3.385,5.021,3.385,8.245
	c0,3.224-1.139,5.998-3.385,8.248C36.95,31.45,34.176,32.588,30.953,32.588z M30.953,12.354c-2.393,0-4.446,0.841-6.104,2.498
	s-2.499,3.711-2.499,6.106c0,2.394,0.841,4.447,2.499,6.105c1.656,1.658,3.71,2.498,6.104,2.498s4.448-0.84,6.104-2.498
	c1.657-1.658,2.498-3.711,2.498-6.105c0-2.396-0.841-4.449-2.499-6.106C35.399,13.194,33.346,12.354,30.953,12.354z"/>
<g>
</g>
<g>
</g>
<g>
</g>
<g>
</g>
<g>
</g>
<g>
</g>
</svg>
