<?xml version="1.0" encoding="utf-8"?>
<!-- Generator: Adobe Illustrator 16.0.0, SVG Export Plug-In . SVG Version: 6.00 Build 0)  -->
<!DOCTYPE svg PUBLIC "-//W3C//DTD SVG 1.1//EN" "http://www.w3.org/Graphics/SVG/1.1/DTD/svg11.dtd">
<svg version="1.1" id="Layer_1" xmlns="http://www.w3.org/2000/svg" xmlns:xlink="http://www.w3.org/1999/xlink" x="0px" y="0px"
	 width="45.606px" height="57.757px" viewBox="0 0 45.606 57.757" enable-background="new 0 0 45.606 57.757" xml:space="preserve">
<g>
	<path fill="#FFFFFF" d="M39.805,4.329c0,0.967-0.785,1.752-1.752,1.752s-1.752-0.785-1.752-1.752c0-0.968,0.785-1.752,1.752-1.752
		S39.805,3.361,39.805,4.329"/>
	<path fill="#FFFFFF" d="M39.805,9.871c0,0.968-0.785,1.752-1.752,1.752s-1.752-0.784-1.752-1.752c0-0.967,0.785-1.752,1.752-1.752
		S39.805,8.904,39.805,9.871"/>
	<path fill="#FFFFFF" d="M45.606,1.752c0,0.968-0.785,1.752-1.752,1.752c-0.969,0-1.752-0.784-1.752-1.752
		C42.102,0.783,42.885,0,43.854,0C44.821,0,45.606,0.783,45.606,1.752"/>
	<path fill="#FFFFFF" d="M43.852,8.723c0.465,0,0.91-0.185,1.239-0.513c0.33-0.329,0.515-0.774,0.515-1.239
		c0-0.464-0.185-0.91-0.514-1.238c-0.328-0.329-0.774-0.515-1.238-0.515c-0.465,0-0.91,0.185-1.239,0.515
		C42.287,6.061,42.1,6.505,42.1,6.971c0,0.465,0.185,0.91,0.513,1.237C42.942,8.538,43.387,8.723,43.852,8.723L43.852,8.723z"/>
	<path fill="#FFFFFF" d="M45.606,12.189c0,0.97-0.785,1.752-1.752,1.752c-0.969,0-1.752-0.782-1.752-1.752
		c0-0.967,0.783-1.752,1.752-1.752C44.821,10.438,45.606,11.223,45.606,12.189"/>
	<path fill="#FFFFFF" d="M5.818,29.369l1.618-7.722c0.105-0.536-0.241-1.06-0.778-1.172c-0.536-0.112-1.063,0.227-1.182,0.763
		l-1.619,7.721c-0.736,3.502-1.106,7.072-1.11,10.652v17.146c0,0.553,0.449,1,1.003,1h25.324c0.554,0,1.003-0.447,1.003-1V41.835
		c0.003-1.203-0.454-2.361-1.277-3.236c-1.305-1.623-3.514-3.418-5.672-5.172c-0.929-0.752-1.804-1.463-2.57-2.131l0,0
		c-1.565-1.42-2.834-3.135-3.738-5.044c-0.316-0.737-0.476-1.53-0.468-2.332v-2.478c0-0.555-0.447-1.003-1.001-1.003
		c-0.553,0-1.002,0.448-1.002,1.003v2.478c-0.009,1.078,0.209,2.147,0.639,3.139c1.018,2.185,2.47,4.142,4.262,5.753
		c0.784,0.684,1.675,1.402,2.617,2.172c0.81,0.656,1.683,1.367,2.513,2.078H9.036c-0.554,0-1.003,0.449-1.003,1.002
		s0.449,1.002,1.003,1.002h16.27c0.597-0.004,1.179,0.191,1.653,0.557c0.136,0.102,0.263,0.215,0.379,0.342
		c0.243,0.295,0.442,0.623,0.588,0.977c0.098,0.289,0.147,0.59,0.149,0.895v13.92H4.75V39.611
		C4.752,36.167,5.109,32.736,5.818,29.369L5.818,29.369z"/>
	<path fill="#FFFFFF" d="M27.742,22.963c0.218,0.157,0.491,0.221,0.756,0.174c0.267-0.045,0.501-0.195,0.653-0.419
		c0.152-0.221,0.21-0.496,0.158-0.759c-0.053-0.266-0.208-0.498-0.433-0.646c-2.18-1.571-3.763-3.834-4.488-6.42
		c-0.132-0.527-0.662-0.854-1.191-0.735c-0.533,0.119-0.87,0.642-0.763,1.177C23.26,18.418,25.137,21.117,27.742,22.963
		L27.742,22.963z"/>
	<path fill="#FFFFFF" d="M32.434,3.23H9.24C8.622,3.229,8.026,3.476,7.59,3.915L0.683,10.82c-0.339,0.34-0.565,0.776-0.647,1.247
		c-0.084,0.473-0.02,0.959,0.184,1.394l1.307,2.793c0.188,0.402,0.488,0.74,0.862,0.979s0.808,0.365,1.252,0.365h12.353l0,0
		c0.429,0.004,0.849-0.112,1.214-0.335c0.367-0.223,0.662-0.543,0.856-0.925c1.277-2.343,3.401-4.106,5.938-4.935
		c0.267-0.072,0.491-0.253,0.62-0.498c0.183,0.161,0.419,0.25,0.662,0.25h7.15c0.553,0,1-0.449,1-1.002v-5.92
		c0-0.267-0.105-0.521-0.293-0.709C32.954,3.336,32.699,3.23,32.434,3.23L32.434,3.23z M24.395,9.686
		c-0.253-0.222-0.599-0.302-0.924-0.213c-3.088,0.964-5.673,3.104-7.198,5.958c-0.056,0.104-0.165,0.167-0.282,0.166H3.637
		c-0.128-0.002-0.245-0.075-0.3-0.191L2.03,12.612l0,0C1.972,12.485,2,12.336,2.096,12.236l6.91-6.906
		C9.069,5.27,9.153,5.234,9.24,5.234h17.102v3.918H25.28C24.91,9.152,24.57,9.356,24.395,9.686L24.395,9.686z M31.431,9.152h-3.088
		V5.234h3.088V9.152z"/>
</g>
<g>
</g>
<g>
</g>
<g>
</g>
<g>
</g>
<g>
</g>
<g>
</g>
</svg>
