<?xml version="1.0" encoding="utf-8"?>
<!-- Generator: Adobe Illustrator 16.0.0, SVG Export Plug-In . SVG Version: 6.00 Build 0)  -->
<!DOCTYPE svg PUBLIC "-//W3C//DTD SVG 1.1//EN" "http://www.w3.org/Graphics/SVG/1.1/DTD/svg11.dtd">
<svg version="1.1" id="Layer_1" xmlns="http://www.w3.org/2000/svg" xmlns:xlink="http://www.w3.org/1999/xlink" x="0px" y="0px"
	 width="66.631px" height="57.157px" viewBox="0 0 66.631 57.157" enable-background="new 0 0 66.631 57.157" xml:space="preserve">
<g>
	<g>
		
			<polyline fill="none" stroke="#4099DA" stroke-width="2" stroke-linecap="round" stroke-linejoin="round" stroke-miterlimit="10" points="
			9.155,25.232 40.079,25.232 40.079,56.157 		"/>
		
			<line fill="none" stroke="#4099DA" stroke-width="2" stroke-linecap="round" stroke-linejoin="round" stroke-miterlimit="10" x1="40.079" y1="25.232" x2="57.478" y2="15.754"/>
		
			<polygon fill="none" stroke="#4099DA" stroke-width="2" stroke-linecap="round" stroke-linejoin="round" stroke-miterlimit="10" points="
			57.478,46.678 40.079,56.157 9.155,56.157 9.155,25.232 26.552,15.754 57.478,15.754 		"/>
	</g>
	<polygon opacity="0.2" fill="#4099DA" enable-background="new    " points="42.503,26.82 0.5,26.82 24.128,13.946 66.131,13.946 	
		"/>
	<polygon fill="none" stroke="#4099DA" stroke-linecap="round" stroke-linejoin="round" stroke-miterlimit="10" points="
		42.503,26.82 0.5,26.82 24.128,13.946 66.131,13.946 	"/>
	<g>
		<g>
			<g>
				
					<line fill="none" stroke="#4099DA" stroke-linecap="round" stroke-linejoin="round" x1="33.274" y1="8.152" x2="33.274" y2="20.384"/>
				<g>
					<path fill="#4099DA" d="M33.274,9.947l3.604,2.191l0.081-0.123L34.626,6.14c-0.451-2.047-0.9-4.094-1.352-6.141
						c-0.45,2.047-0.9,4.094-1.352,6.141l-2.333,5.875l0.062,0.123L33.274,9.947z"/>
				</g>
			</g>
		</g>
	</g>
</g>
</svg>
