<?xml version="1.0" encoding="utf-8"?>
<!-- Generator: Adobe Illustrator 16.0.0, SVG Export Plug-In . SVG Version: 6.00 Build 0)  -->
<!DOCTYPE svg PUBLIC "-//W3C//DTD SVG 1.1//EN" "http://www.w3.org/Graphics/SVG/1.1/DTD/svg11.dtd">
<svg version="1.1" id="Layer_1" xmlns="http://www.w3.org/2000/svg" xmlns:xlink="http://www.w3.org/1999/xlink" x="0px" y="0px"
	 width="33.687px" height="55.604px" viewBox="0 0 33.687 55.604" enable-background="new 0 0 33.687 55.604" xml:space="preserve">
<path fill="#FFFFFF" d="M2.976,55.604l7.499-37.89l-6.529,2.781v8.6H0V17.909l12.415-5.238c0.602-0.257,1.238-0.419,1.906-0.484
	c0.668-0.063,1.326-0.032,1.973,0.099c0.732,0.129,1.367,0.366,1.907,0.709c0.539,0.347,0.982,0.777,1.326,1.294l2.715,4.268
	c1.338,2.069,3.008,3.696,5.012,4.883c2.004,1.185,4.148,1.777,6.434,1.777v3.88c-3.018-0.086-5.68-0.745-7.986-1.973
	c-2.307-1.229-4.385-3.114-6.238-5.657l-2.458,9.827l5.948,5.367v18.944h-3.879V40.087l-6.982-6.337L6.983,55.604H2.976z
	 M19.916,9.438c-1.295,0-2.404-0.462-3.331-1.389c-0.926-0.928-1.391-2.037-1.391-3.33c0-1.294,0.465-2.403,1.391-3.33
	C17.512,0.462,18.621,0,19.916,0c1.293,0,2.402,0.462,3.33,1.39c0.924,0.927,1.389,2.036,1.389,3.33c0,1.293-0.465,2.402-1.389,3.33
	C22.318,8.977,21.208,9.438,19.916,9.438z"/>
<g>
</g>
<g>
</g>
<g>
</g>
<g>
</g>
<g>
</g>
<g>
</g>
</svg>
