<?xml version="1.0" encoding="utf-8"?>
<!-- Generator: Adobe Illustrator 16.0.0, SVG Export Plug-In . SVG Version: 6.00 Build 0)  -->
<!DOCTYPE svg PUBLIC "-//W3C//DTD SVG 1.1//EN" "http://www.w3.org/Graphics/SVG/1.1/DTD/svg11.dtd">
<svg version="1.1" id="Layer_1" xmlns="http://www.w3.org/2000/svg" xmlns:xlink="http://www.w3.org/1999/xlink" x="0px" y="0px"
	 width="42.009px" height="56.012px" viewBox="0 0 42.009 56.012" enable-background="new 0 0 42.009 56.012" xml:space="preserve">
<path fill="#4099DA" d="M23.922,56.012c-4.239,0-7.896-1.089-10.97-3.269c-3.072-2.176-5.29-5.075-6.65-8.692L0.35,28.472
	c-0.116-0.311-0.204-0.632-0.262-0.963C0.029,27.179,0,26.839,0,26.488c0-1.011,0.39-1.905,1.167-2.684s1.673-1.167,2.684-1.167
	c0.233,0,0.457,0.01,0.671,0.028c0.215,0.021,0.419,0.068,0.613,0.146l1.751,0.468c0.776,0.194,1.39,0.458,1.836,0.788
	c0.448,0.331,0.944,0.923,1.488,1.779V9.627c0-1.361,0.486-2.528,1.459-3.501c0.974-0.973,2.141-1.458,3.501-1.458
	c0.467,0,0.895,0.068,1.283,0.203c0.39,0.137,0.739,0.321,1.051,0.555V4.959c0-1.361,0.495-2.528,1.488-3.5
	C19.983,0.485,21.159,0,22.521,0c1.245,0,2.314,0.408,3.209,1.224c0.895,0.818,1.438,1.771,1.634,2.86
	c0.156-0.194,0.486-0.341,0.991-0.438c0.506-0.098,0.973-0.146,1.4-0.146c1.479,0,2.674,0.554,3.589,1.661
	c0.914,1.11,1.371,2.346,1.371,3.706v2.274c0.272-0.232,0.622-0.397,1.051-0.494c0.427-0.099,0.854-0.146,1.283-0.146
	c1.36,0,2.527,0.486,3.5,1.459c0.974,0.972,1.459,2.139,1.459,3.501v22.463c0,5.328-1.682,9.675-5.047,13.039
	C33.597,54.33,29.25,56.012,23.922,56.012z M23.922,52.511c4.356,0,7.876-1.352,10.561-4.054c2.684-2.703,4.025-6.216,4.025-10.532
	V15.462c0-0.429-0.137-0.778-0.407-1.051c-0.273-0.272-0.623-0.408-1.051-0.408c-0.429,0-0.777,0.136-1.051,0.408
	c-0.271,0.272-0.408,0.622-0.408,1.051v12.544h-4.376V8.46c0-0.429-0.137-0.778-0.408-1.051c-0.273-0.272-0.622-0.407-1.051-0.407
	c-0.428,0-0.776,0.135-1.05,0.407c-0.271,0.272-0.408,0.622-0.408,1.051v19.546h-4.376V4.959c0-0.428-0.137-0.777-0.408-1.05
	c-0.273-0.272-0.622-0.408-1.051-0.408s-0.777,0.136-1.051,0.408c-0.271,0.272-0.407,0.622-0.407,1.05v23.047h-4.376V9.627
	c0-0.429-0.138-0.778-0.408-1.051c-0.273-0.272-0.622-0.407-1.051-0.407s-0.777,0.135-1.051,0.407
	c-0.271,0.272-0.408,0.622-0.408,1.051v24.797h-3.384l-2.159-5.485c-0.39-1.01-0.884-1.662-1.487-1.953
	c-0.603-0.292-1.391-0.556-2.363-0.789c-0.389-0.077-0.651-0.039-0.787,0.116c-0.137,0.157-0.128,0.409,0.028,0.759l6.068,15.754
	c1.128,2.917,2.897,5.262,5.31,7.03C17.349,51.627,20.344,52.511,23.922,52.511z"/>
<g>
</g>
<g>
</g>
<g>
</g>
<g>
</g>
<g>
</g>
<g>
</g>
</svg>
