<?xml version="1.0" encoding="utf-8"?>
<!-- Generator: Adobe Illustrator 16.0.0, SVG Export Plug-In . SVG Version: 6.00 Build 0)  -->
<!DOCTYPE svg PUBLIC "-//W3C//DTD SVG 1.1//EN" "http://www.w3.org/Graphics/SVG/1.1/DTD/svg11.dtd">
<svg version="1.1" id="Layer_1" xmlns="http://www.w3.org/2000/svg" xmlns:xlink="http://www.w3.org/1999/xlink" x="0px" y="0px"
	 width="67.631px" height="32.227px" viewBox="-0.242 -4.561 67.631 32.227" enable-background="new -0.242 -4.561 67.631 32.227"
	 xml:space="preserve">
<g>
	
		<line fill="none" stroke="#FFFFFF" stroke-width="2" stroke-linecap="round" stroke-linejoin="round" stroke-miterlimit="10" x1="0.758" y1="9.4" x2="0.758" y2="15.41"/>
	
		<line fill="none" stroke="#FFFFFF" stroke-width="2" stroke-linecap="round" stroke-linejoin="round" stroke-miterlimit="10" x1="66.389" y1="-3.561" x2="66.389" y2="2.449"/>
	<g>
		<g>
			
				<line fill="none" stroke="#FFFFFF" stroke-width="3" stroke-linecap="round" stroke-linejoin="round" x1="9.07" y1="10.764" x2="58.076" y2="1.085"/>
			<g>
				<polygon fill="#FFFFFF" points="0.758,12.406 13.416,14.879 9.691,10.641 11.525,5.307 				"/>
			</g>
			<g>
				<polygon fill="#FFFFFF" points="66.389,-0.556 55.621,6.543 57.455,1.208 53.73,-3.028 				"/>
			</g>
		</g>
	</g>
	<g>
		<path fill="#FFFFFF" d="M23.55,15.604c0-1-0.02-1.82-0.08-2.619h1.541l0.08,1.559h0.06c0.54-0.92,1.44-1.779,3.041-1.779
			c1.32,0,2.32,0.801,2.74,1.939h0.04c0.3-0.539,0.681-0.959,1.08-1.26c0.58-0.439,1.221-0.68,2.141-0.68
			c1.28,0,3.181,0.84,3.181,4.201v5.701h-1.721v-5.482c0-1.859-0.68-2.98-2.1-2.98c-1.001,0-1.781,0.74-2.081,1.602
			c-0.08,0.24-0.14,0.559-0.14,0.879v5.982h-1.721v-5.801c0-1.541-0.68-2.662-2.021-2.662c-1.1,0-1.9,0.881-2.181,1.762
			c-0.1,0.26-0.14,0.559-0.14,0.859v5.842H23.55V15.604z"/>
		<path fill="#FFFFFF" d="M40.229,15.604c0-1-0.02-1.82-0.08-2.619h1.541l0.08,1.559h0.06c0.54-0.92,1.44-1.779,3.041-1.779
			c1.32,0,2.32,0.801,2.74,1.939h0.04c0.3-0.539,0.681-0.959,1.08-1.26c0.58-0.439,1.221-0.68,2.141-0.68
			c1.28,0,3.181,0.84,3.181,4.201v5.701h-1.721v-5.482c0-1.859-0.68-2.98-2.1-2.98c-1.001,0-1.781,0.74-2.081,1.602
			c-0.08,0.24-0.14,0.559-0.14,0.879v5.982h-1.721v-5.801c0-1.541-0.68-2.662-2.021-2.662c-1.1,0-1.9,0.881-2.181,1.762
			c-0.1,0.26-0.14,0.559-0.14,0.859v5.842h-1.721V15.604z"/>
	</g>
</g>
<g>
</g>
</svg>
